<?xml version="1.0" standalone="no"?>
<!DOCTYPE svg PUBLIC "-//W3C//DTD SVG 20010904//EN"
 "http://www.w3.org/TR/2001/REC-SVG-20010904/DTD/svg10.dtd">
<svg version="1.0" xmlns="http://www.w3.org/2000/svg"
 width="318.000000pt" height="78.000000pt" viewBox="0 0 318.000000 78.000000"
 preserveAspectRatio="xMidYMid meet">

<g transform="translate(0.000000,78.000000) scale(0.100000,-0.100000)"
fill="#000000" stroke="none">
<path d="M62 560 c-66 -40 -82 -155 -29 -207 29 -30 99 -41 148 -24 18 6 34 9
37 6 12 -12 -21 -86 -50 -110 -30 -25 -37 -27 -95 -21 -53 6 -63 4 -63 -9 0
-31 90 -46 147 -24 78 29 119 119 111 243 -3 39 -12 86 -22 103 -31 62 -120
82 -184 43z m115 -35 c23 -16 43 -70 43 -117 0 -20 -7 -28 -31 -37 -102 -36
-172 37 -124 129 22 42 71 53 112 25z"/>
<path d="M382 560 c-66 -40 -82 -155 -29 -207 29 -30 99 -41 148 -24 18 6 34
9 37 6 12 -12 -21 -86 -50 -110 -30 -25 -37 -27 -95 -21 -53 6 -63 4 -63 -9 0
-31 90 -46 147 -24 78 29 119 119 111 243 -3 39 -12 86 -22 103 -31 62 -120
82 -184 43z m115 -35 c23 -16 43 -70 43 -117 0 -20 -7 -28 -31 -37 -102 -36
-172 37 -124 129 22 42 71 53 112 25z"/>
<path d="M1819 557 c-49 -33 -70 -98 -66 -207 5 -136 44 -190 135 -190 96 0
145 81 139 230 -4 98 -25 153 -68 175 -42 22 -101 19 -140 -8z m126 -41 c28
-29 39 -91 33 -187 -8 -101 -44 -142 -113 -125 -38 10 -57 49 -63 125 -10 140
20 211 88 211 19 0 40 -9 55 -24z"/>
<path d="M2290 562 c-22 -10 -36 -26 -38 -39 -4 -28 -1 -28 40 -3 63 38 128
13 128 -49 0 -47 -29 -73 -88 -79 -42 -4 -52 -8 -52 -23 0 -16 8 -19 45 -19
101 0 149 -67 90 -125 -28 -29 -77 -33 -132 -10 -45 19 -43 19 -43 -6 0 -43
119 -65 186 -33 84 40 85 154 1 189 -29 12 -29 13 -9 20 12 3 29 19 37 35 56
107 -51 199 -165 142z"/>
<path d="M640 545 l0 -25 101 0 c77 0 100 -3 96 -12 -3 -7 -37 -84 -76 -170
-39 -87 -71 -160 -71 -163 0 -11 49 -4 57 8 23 37 153 345 153 364 0 23 -2 23
-130 23 l-130 0 0 -25z"/>
<path d="M1130 471 l0 -99 76 -4 c65 -3 79 -7 95 -27 21 -26 24 -59 8 -94 -21
-46 -89 -60 -156 -32 -45 19 -43 19 -43 -10 0 -19 7 -26 38 -34 117 -33 222
23 222 119 0 74 -55 120 -145 120 l-45 0 0 55 0 55 80 0 c79 0 80 0 80 25 l0
25 -105 0 -105 0 0 -99z"/>
<path d="M1513 533 c-32 -22 -53 -43 -53 -54 0 -25 13 -24 60 6 l40 25 0 -150
0 -150 -50 0 c-43 0 -50 -3 -50 -20 0 -19 7 -20 115 -20 108 0 115 1 115 20 0
17 -7 20 -40 20 l-40 0 0 180 0 180 -22 -1 c-13 0 -47 -16 -75 -36z"/>
<path d="M2633 533 c-32 -22 -53 -43 -53 -54 0 -25 13 -24 60 6 l40 25 0 -150
0 -150 -50 0 c-43 0 -50 -3 -50 -20 0 -19 7 -20 115 -20 108 0 115 1 115 20 0
17 -7 20 -40 20 l-40 0 0 180 0 180 -22 -1 c-13 0 -47 -16 -75 -36z"/>
<path d="M2880 545 l0 -25 101 0 c77 0 100 -3 96 -12 -3 -7 -37 -84 -76 -170
-39 -87 -71 -160 -71 -163 0 -11 49 -4 57 8 23 37 153 345 153 364 0 23 -2 23
-130 23 l-130 0 0 -25z"/>
</g>
</svg>
